<?xml version="1.0" encoding="UTF-8"?>
<svg id="Layer_1" data-name="Layer 1" xmlns="http://www.w3.org/2000/svg" xmlns:xlink="http://www.w3.org/1999/xlink" viewBox="0 0 1918 1010">
  <defs>
    <clipPath id="clippath">
      <rect width="1918" height="1010" fill="none"/>
    </clipPath>
  </defs>
  <g clip-path="url(#clippath)">
    <g>
      <line x1="-.45" y1="100" x2="1918.45" y2="100" fill="none" stroke="#ccc" stroke-miterlimit="10" stroke-width="4"/>
      <line x1="-.45" y1="115" x2="1918.45" y2="115" fill="none" stroke="#ccc" stroke-miterlimit="10" stroke-width="4"/>
      <line x1="-.45" y1="70" x2="1918.45" y2="70" fill="none" stroke="#ccc" stroke-miterlimit="10" stroke-width="4"/>
      <line x1="-.45" y1="85" x2="1918.45" y2="85" fill="none" stroke="#ccc" stroke-miterlimit="10" stroke-width="4"/>
      <line x1="-.45" y1="130" x2="1918.45" y2="130" fill="none" stroke="#ccc" stroke-miterlimit="10" stroke-width="4"/>
    </g>
    <g>
      <line x1="-.45" y1="210" x2="1918.45" y2="210" fill="none" stroke="#ccc" stroke-miterlimit="10" stroke-width="4"/>
      <line x1="-.45" y1="225" x2="1918.45" y2="225" fill="none" stroke="#ccc" stroke-miterlimit="10" stroke-width="4"/>
      <line x1="-.45" y1="180" x2="1918.45" y2="180" fill="none" stroke="#ccc" stroke-miterlimit="10" stroke-width="4"/>
      <line x1="-.45" y1="195" x2="1918.45" y2="195" fill="none" stroke="#ccc" stroke-miterlimit="10" stroke-width="4"/>
      <line x1="-.45" y1="240" x2="1918.45" y2="240" fill="none" stroke="#ccc" stroke-miterlimit="10" stroke-width="4"/>
    </g>
    <g>
      <line x1="-.45" y1="320" x2="1918.45" y2="320" fill="none" stroke="#ccc" stroke-miterlimit="10" stroke-width="4"/>
      <line x1="-.45" y1="335" x2="1918.45" y2="335" fill="none" stroke="#ccc" stroke-miterlimit="10" stroke-width="4"/>
      <line x1="-.45" y1="290" x2="1918.45" y2="290" fill="none" stroke="#ccc" stroke-miterlimit="10" stroke-width="4"/>
      <line x1="-.45" y1="305" x2="1918.45" y2="305" fill="none" stroke="#ccc" stroke-miterlimit="10" stroke-width="4"/>
      <line x1="-.45" y1="350" x2="1918.45" y2="350" fill="none" stroke="#ccc" stroke-miterlimit="10" stroke-width="4"/>
    </g>
    <g>
      <line x1="-.45" y1="430" x2="1918.45" y2="430" fill="none" stroke="#ccc" stroke-miterlimit="10" stroke-width="4"/>
      <line x1="-.45" y1="445" x2="1918.45" y2="445" fill="none" stroke="#ccc" stroke-miterlimit="10" stroke-width="4"/>
      <line x1="-.45" y1="400" x2="1918.45" y2="400" fill="none" stroke="#ccc" stroke-miterlimit="10" stroke-width="4"/>
      <line x1="-.45" y1="415" x2="1918.45" y2="415" fill="none" stroke="#ccc" stroke-miterlimit="10" stroke-width="4"/>
      <line x1="-.45" y1="460" x2="1918.45" y2="460" fill="none" stroke="#ccc" stroke-miterlimit="10" stroke-width="4"/>
    </g>
    <g>
      <line x1="-.45" y1="540" x2="1918.45" y2="540" fill="none" stroke="#ccc" stroke-miterlimit="10" stroke-width="4"/>
      <line x1="-.45" y1="555" x2="1918.45" y2="555" fill="none" stroke="#ccc" stroke-miterlimit="10" stroke-width="4"/>
      <line x1="-.45" y1="510" x2="1918.45" y2="510" fill="none" stroke="#ccc" stroke-miterlimit="10" stroke-width="4"/>
      <line x1="-.45" y1="525" x2="1918.45" y2="525" fill="none" stroke="#ccc" stroke-miterlimit="10" stroke-width="4"/>
      <line x1="-.45" y1="570" x2="1918.45" y2="570" fill="none" stroke="#ccc" stroke-miterlimit="10" stroke-width="4"/>
    </g>
    <g>
      <line x1="-.45" y1="650" x2="1918.45" y2="650" fill="none" stroke="#ccc" stroke-miterlimit="10" stroke-width="4"/>
      <line x1="-.45" y1="665" x2="1918.45" y2="665" fill="none" stroke="#ccc" stroke-miterlimit="10" stroke-width="4"/>
      <line x1="-.45" y1="620" x2="1918.45" y2="620" fill="none" stroke="#ccc" stroke-miterlimit="10" stroke-width="4"/>
      <line x1="-.45" y1="635" x2="1918.45" y2="635" fill="none" stroke="#ccc" stroke-miterlimit="10" stroke-width="4"/>
      <line x1="-.45" y1="680" x2="1918.45" y2="680" fill="none" stroke="#ccc" stroke-miterlimit="10" stroke-width="4"/>
    </g>
    <g>
      <line x1="-.45" y1="760" x2="1918.45" y2="760" fill="none" stroke="#ccc" stroke-miterlimit="10" stroke-width="4"/>
      <line x1="-.45" y1="775" x2="1918.45" y2="775" fill="none" stroke="#ccc" stroke-miterlimit="10" stroke-width="4"/>
      <line x1="-.45" y1="730" x2="1918.45" y2="730" fill="none" stroke="#ccc" stroke-miterlimit="10" stroke-width="4"/>
      <line x1="-.45" y1="745" x2="1918.45" y2="745" fill="none" stroke="#ccc" stroke-miterlimit="10" stroke-width="4"/>
      <line x1="-.45" y1="790" x2="1918.45" y2="790" fill="none" stroke="#ccc" stroke-miterlimit="10" stroke-width="4"/>
    </g>
    <g>
      <line x1="-.45" y1="870" x2="1918.45" y2="870" fill="none" stroke="#ccc" stroke-miterlimit="10" stroke-width="4"/>
      <line x1="-.45" y1="885" x2="1918.45" y2="885" fill="none" stroke="#ccc" stroke-miterlimit="10" stroke-width="4"/>
      <line x1="-.45" y1="840" x2="1918.45" y2="840" fill="none" stroke="#ccc" stroke-miterlimit="10" stroke-width="4"/>
      <line x1="-.45" y1="855" x2="1918.45" y2="855" fill="none" stroke="#ccc" stroke-miterlimit="10" stroke-width="4"/>
      <line x1="-.45" y1="900" x2="1918.45" y2="900" fill="none" stroke="#ccc" stroke-miterlimit="10" stroke-width="4"/>
    </g>
    <g>
      <line x1="-.45" y1="980" x2="1918.45" y2="980" fill="none" stroke="#ccc" stroke-miterlimit="10" stroke-width="4"/>
      <line x1="-.45" y1="995" x2="1918.45" y2="995" fill="none" stroke="#ccc" stroke-miterlimit="10" stroke-width="4"/>
      <line x1="-.45" y1="950" x2="1918.45" y2="950" fill="none" stroke="#ccc" stroke-miterlimit="10" stroke-width="4"/>
      <line x1="-.45" y1="965" x2="1918.45" y2="965" fill="none" stroke="#ccc" stroke-miterlimit="10" stroke-width="4"/>
      <line x1="-.45" y1="1010" x2="1918.45" y2="1010" fill="none" stroke="#ccc" stroke-miterlimit="10" stroke-width="4"/>
    </g>
  </g>
</svg>